<svg width="11" height="15" viewBox="0 0 11 15" fill="none" xmlns="http://www.w3.org/2000/svg">
<mask id="path-1-outside-1_49_2856" maskUnits="userSpaceOnUse" x="-1" y="-1" width="13" height="17" fill="black">
<rect fill="white" x="-1" y="-1" width="13" height="17"/>
<path d="M0.0600001 7.52C0.0600001 5.21333 0.473333 3.40667 1.3 2.1C2.14 0.793333 3.52667 0.139999 5.46 0.139999C7.39333 0.139999 8.77333 0.793333 9.6 2.1C10.44 3.40667 10.86 5.21333 10.86 7.52C10.86 9.84 10.44 11.66 9.6 12.98C8.77333 14.3 7.39333 14.96 5.46 14.96C3.52667 14.96 2.14 14.3 1.3 12.98C0.473333 11.66 0.0600001 9.84 0.0600001 7.52ZM8.1 7.52C8.1 6.53333 8.03333 5.70667 7.9 5.04C7.78 4.36 7.52667 3.80667 7.14 3.38C6.76667 2.95333 6.20667 2.74 5.46 2.74C4.71333 2.74 4.14667 2.95333 3.76 3.38C3.38667 3.80667 3.13333 4.36 3 5.04C2.88 5.70667 2.82 6.53333 2.82 7.52C2.82 8.53333 2.88 9.38667 3 10.08C3.12 10.76 3.37333 11.3133 3.76 11.74C4.14667 12.1533 4.71333 12.36 5.46 12.36C6.20667 12.36 6.77333 12.1533 7.16 11.74C7.54667 11.3133 7.8 10.76 7.92 10.08C8.04 9.38667 8.1 8.53333 8.1 7.52Z"/>
</mask>
<path d="M1.3 2.1L0.458799 1.55923L0.454921 1.56536L1.3 2.1ZM9.6 2.1L8.7549 2.63465L8.75882 2.64076L9.6 2.1ZM9.6 12.98L8.75632 12.4431L8.75248 12.4492L9.6 12.98ZM1.3 12.98L0.452461 13.5108L0.456339 13.5169L1.3 12.98ZM7.9 5.04L6.91522 5.21379L6.91719 5.22497L6.91942 5.23612L7.9 5.04ZM7.14 3.38L6.38742 4.0385L6.39316 4.04506L6.39901 4.05152L7.14 3.38ZM3.76 3.38L3.01901 2.70848L3.01316 2.71494L3.00742 2.72149L3.76 3.38ZM3 5.04L2.01869 4.84758L2.01719 4.8552L2.01582 4.86285L3 5.04ZM3 10.08L2.01464 10.2505L2.01522 10.2538L3 10.08ZM3.76 11.74L3.01901 12.4115L3.02432 12.4174L3.02973 12.4232L3.76 11.74ZM7.16 11.74L7.89027 12.4232L7.89568 12.4174L7.90099 12.4115L7.16 11.74ZM7.92 10.08L8.90479 10.2538L8.90535 10.2505L7.92 10.08ZM1.06 7.52C1.06 5.31554 1.45781 3.72097 2.14508 2.63464L0.454921 1.56536C-0.511144 3.09236 -0.94 5.11113 -0.94 7.52H1.06ZM2.14118 2.64076C2.75105 1.69207 3.7718 1.14 5.46 1.14V-0.860001C3.28153 -0.860001 1.52895 -0.105405 0.458822 1.55924L2.14118 2.64076ZM5.46 1.14C7.14875 1.14 8.15855 1.69199 8.75492 2.63464L10.4451 1.56536C9.38812 -0.105325 7.63792 -0.860001 5.46 -0.860001V1.14ZM8.75882 2.64076C9.45632 3.72576 9.86 5.31781 9.86 7.52H11.86C11.86 5.10885 11.4237 3.08757 10.4412 1.55924L8.75882 2.64076ZM9.86 7.52C9.86 9.73595 9.45618 11.3434 8.75634 12.4431L10.4437 13.5169C11.4238 11.9766 11.86 9.94404 11.86 7.52H9.86ZM8.75248 12.4492C8.15419 13.4046 7.14443 13.96 5.46 13.96V15.96C7.64224 15.96 9.39247 15.1954 10.4475 13.5108L8.75248 12.4492ZM5.46 13.96C3.77607 13.96 2.75541 13.4044 2.14366 12.4431L0.456339 13.5169C1.52459 15.1956 3.27726 15.96 5.46 15.96V13.96ZM2.14752 12.4492C1.45794 11.3481 1.06 9.73821 1.06 7.52H-0.94C-0.94 9.94179 -0.511275 11.9719 0.452483 13.5108L2.14752 12.4492ZM9.1 7.52C9.1 6.49415 9.03118 5.59687 8.88058 4.84388L6.91942 5.23612C7.03549 5.81647 7.1 6.57252 7.1 7.52H9.1ZM8.88478 4.86621C8.73862 4.03795 8.41742 3.30041 7.88099 2.70848L6.39901 4.05152C6.63591 4.31292 6.82138 4.68205 6.91522 5.21379L8.88478 4.86621ZM7.89258 2.72149C7.27369 2.0142 6.3981 1.74 5.46 1.74V3.74C6.01523 3.74 6.25964 3.89246 6.38742 4.0385L7.89258 2.72149ZM5.46 1.74C4.51982 1.74 3.64763 2.01484 3.01901 2.70848L4.50099 4.05152C4.64571 3.89183 4.90684 3.74 5.46 3.74V1.74ZM3.00742 2.72149C2.49493 3.30721 2.1784 4.03303 2.01869 4.84758L3.98131 5.23241C4.08826 4.68697 4.27841 4.30613 4.51258 4.0385L3.00742 2.72149ZM2.01582 4.86285C1.88172 5.60781 1.82 6.4982 1.82 7.52H3.82C3.82 6.56846 3.87828 5.80553 3.98418 5.21715L2.01582 4.86285ZM1.82 7.52C1.82 8.56789 1.88168 9.4823 2.01465 10.2505L3.98535 9.90946C3.87832 9.29103 3.82 8.49877 3.82 7.52H1.82ZM2.01522 10.2538C2.16138 11.0821 2.48258 11.8196 3.01901 12.4115L4.50099 11.0685C4.26409 10.8071 4.07862 10.438 3.98478 9.90621L2.01522 10.2538ZM3.02973 12.4232C3.6606 13.0975 4.52914 13.36 5.46 13.36V11.36C4.89752 11.36 4.63274 11.2091 4.49027 11.0568L3.02973 12.4232ZM5.46 13.36C6.39086 13.36 7.2594 13.0975 7.89027 12.4232L6.42973 11.0568C6.28727 11.2091 6.02248 11.36 5.46 11.36V13.36ZM7.90099 12.4115C8.43742 11.8196 8.75862 11.0821 8.90478 10.2538L6.93522 9.90621C6.84138 10.438 6.65591 10.8071 6.41901 11.0685L7.90099 12.4115ZM8.90535 10.2505C9.03832 9.4823 9.1 8.56789 9.1 7.52H7.1C7.1 8.49877 7.04168 9.29103 6.93465 9.90946L8.90535 10.2505Z" fill="white" fill-opacity="0.9" mask="url(#path-1-outside-1_49_2856)"/>
</svg>
