<svg width="14" height="14" viewBox="0 0 14 14" fill="none" xmlns="http://www.w3.org/2000/svg">
<g id="ant-design:login-outlined">
<path id="Vector" d="M7.13234 1.12111C5.04738 1.11565 3.21262 2.19436 2.16398 3.82404C2.1175 3.89651 2.16945 3.99221 2.25559 3.99221H3.21672C3.28234 3.99221 3.34387 3.9635 3.38488 3.91291C3.48059 3.7967 3.58313 3.68459 3.69113 3.57795C4.13684 3.13361 4.655 2.78361 5.23195 2.54025C5.82805 2.28869 6.46242 2.16018 7.1173 2.16018C7.77219 2.16018 8.40656 2.28733 9.00266 2.54025C9.57961 2.78361 10.0978 3.13361 10.5435 3.57795C10.9892 4.02229 11.3378 4.54045 11.5825 5.11604C11.8355 5.71213 11.9626 6.34514 11.9626 7.00002C11.9626 7.6549 11.8341 8.28791 11.5825 8.884C11.3392 9.45959 10.9892 9.97775 10.5435 10.4221C10.0978 10.8664 9.57961 11.2164 9.00266 11.4598C8.40609 11.7118 7.7649 11.841 7.1173 11.8399C6.46242 11.8399 5.82805 11.7113 5.23195 11.4598C4.65613 11.2167 4.13288 10.8643 3.69113 10.4221C3.58313 10.3141 3.48195 10.202 3.38488 10.0871C3.34387 10.0365 3.28098 10.0078 3.21672 10.0078H2.25559C2.16945 10.0078 2.11613 10.1035 2.16398 10.176C3.21125 11.8016 5.03781 12.8789 7.1173 12.8789C10.3466 12.8789 12.9689 10.2799 13.0017 7.06018C13.0345 3.7885 10.4081 1.12932 7.13234 1.12111ZM5.40039 8.53127V7.49221H1.10742C1.04727 7.49221 0.998047 7.44299 0.998047 7.38283V6.61721C0.998047 6.55705 1.04727 6.50783 1.10742 6.50783H5.40039V5.46877C5.40039 5.37717 5.50703 5.32522 5.57812 5.38264L7.51816 6.91389C7.53124 6.92412 7.54181 6.93719 7.54908 6.95211C7.55635 6.96704 7.56013 6.98342 7.56013 7.00002C7.56013 7.01662 7.55635 7.033 7.54908 7.04793C7.54181 7.06285 7.53124 7.07592 7.51816 7.08615L5.57812 8.6174C5.50703 8.67346 5.40039 8.62287 5.40039 8.53127Z" fill="white"/>
</g>
</svg>
